<?xml version="1.0" standalone="no"?>
<!DOCTYPE svg PUBLIC "-//W3C//DTD SVG 20010904//EN"
 "http://www.w3.org/TR/2001/REC-SVG-20010904/DTD/svg10.dtd">
<svg version="1.0" xmlns="http://www.w3.org/2000/svg"
 width="200.000000pt" height="200.000000pt" viewBox="0 0 200.000000 200.000000"
 preserveAspectRatio="xMidYMid meet">
<metadata>
Created by potrace 1.14, written by Peter Selinger 2001-2017
</metadata>
<g transform="translate(0.000000,200.000000) scale(0.100000,-0.100000)"
fill="#000000" stroke="none">
<path d="M830 1585 c-220 -54 -389 -222 -446 -445 -24 -96 -16 -252 20 -345
55 -145 159 -261 291 -326 244 -120 506 -78 695 111 195 194 233 488 94 727
-39 69 -159 182 -231 221 -124 66 -294 89 -423 57z m361 -235 c27 -15 24 -28
-8 -33 -23 -3 -22 -4 8 -6 20 0 42 -8 49 -16 10 -12 -2 -15 -87 -18 l-98 -3
106 -2 c79 -1 110 -6 119 -17 10 -12 0 -15 -77 -18 l-88 -3 96 -2 c88 -2 97
-4 119 -27 l23 -25 -146 0 -147 0 0 -125 c0 -69 -3 -125 -7 -125 -4 0 -45 37
-90 82 -78 78 -83 85 -83 125 l0 43 -47 0 c-46 0 -50 2 -130 82 -46 46 -83 86
-83 90 0 12 548 10 571 -2z m-213 -434 l82 -83 0 -131 c0 -73 -3 -132 -7 -132
-4 0 -45 37 -90 82 l-83 83 0 132 c0 73 3 133 8 133 4 0 44 -38 90 -84z"/>
</g>
</svg>
